<svg width="32" height="32" viewBox="0 0 32 32" fill="none" xmlns="http://www.w3.org/2000/svg">
<path d="M3.5 3.02783H6.76087L6.85968 6.36117M26.8696 21.3612L9.49919 21.3612C8.27663 21.3612 7.27554 20.3893 7.23931 19.1673L7.20553 18.0278M7.20553 18.0278L26.3261 16.3612L28.5 6.36117H6.85968M7.20553 18.0278L6.85968 6.36117M24.6957 26.7017V26.7984C24.6957 27.999 23.7224 28.9723 22.5217 28.9723V28.9723C21.3211 28.9723 20.3478 27.999 20.3478 26.7984V26.7017C20.3478 25.5011 21.3211 24.5278 22.5217 24.5278V24.5278C23.7224 24.5278 24.6957 25.5011 24.6957 26.7017ZM13.8261 26.7017V26.7984C13.8261 27.999 12.8528 28.9723 11.6522 28.9723V28.9723C10.4516 28.9723 9.47826 27.999 9.47826 26.7984V26.7017C9.47826 25.5011 10.4516 24.5278 11.6522 24.5278V24.5278C12.8528 24.5278 13.8261 25.5011 13.8261 26.7017Z" stroke="#3EC927" stroke-width="1.5" stroke-linecap="round" stroke-linejoin="round"/>
</svg>
